<svg xmlns="http://www.w3.org/2000/svg" width="413" height="413" viewBox="0 0 413 413">
  <g id="Group_2" data-name="Group 2" transform="translate(-438 -508)" opacity="0.34">
    <circle id="Ellipse_1" data-name="Ellipse 1" cx="7" cy="7" r="7" transform="translate(438 508)" fill="#000656"/>
    <ellipse id="Ellipse_1-2" data-name="Ellipse 1" cx="7.5" cy="7" rx="7.5" ry="7" transform="translate(466 508)" fill="#000656"/>
    <circle id="Ellipse_1-3" data-name="Ellipse 1" cx="7" cy="7" r="7" transform="translate(495 508)" fill="#000656"/>
    <ellipse id="Ellipse_1-4" data-name="Ellipse 1" cx="7.5" cy="7" rx="7.5" ry="7" transform="translate(523 508)" fill="#000656"/>
    <circle id="Ellipse_1-5" data-name="Ellipse 1" cx="7" cy="7" r="7" transform="translate(552 508)" fill="#000656"/>
    <ellipse id="Ellipse_1-6" data-name="Ellipse 1" cx="7.5" cy="7" rx="7.5" ry="7" transform="translate(580 508)" fill="#000656"/>
    <circle id="Ellipse_1-7" data-name="Ellipse 1" cx="7" cy="7" r="7" transform="translate(609 508)" fill="#000656"/>
    <ellipse id="Ellipse_1-8" data-name="Ellipse 1" cx="7.5" cy="7" rx="7.5" ry="7" transform="translate(637 508)" fill="#000656"/>
    <circle id="Ellipse_1-9" data-name="Ellipse 1" cx="7" cy="7" r="7" transform="translate(666 508)" fill="#000656"/>
    <ellipse id="Ellipse_1-10" data-name="Ellipse 1" cx="7.5" cy="7" rx="7.5" ry="7" transform="translate(694 508)" fill="#000656"/>
    <circle id="Ellipse_1-11" data-name="Ellipse 1" cx="7" cy="7" r="7" transform="translate(723 508)" fill="#000656"/>
    <ellipse id="Ellipse_1-12" data-name="Ellipse 1" cx="7.5" cy="7" rx="7.5" ry="7" transform="translate(751 508)" fill="#000656"/>
    <circle id="Ellipse_1-13" data-name="Ellipse 1" cx="7" cy="7" r="7" transform="translate(780 508)" fill="#000656"/>
    <ellipse id="Ellipse_1-14" data-name="Ellipse 1" cx="7.5" cy="7" rx="7.5" ry="7" transform="translate(808 508)" fill="#000656"/>
    <circle id="Ellipse_1-15" data-name="Ellipse 1" cx="7" cy="7" r="7" transform="translate(837 508)" fill="#000656"/>
    <ellipse id="Ellipse_1-16" data-name="Ellipse 1" cx="7" cy="7.5" rx="7" ry="7.5" transform="translate(438 536)" fill="#000656"/>
    <circle id="Ellipse_1-17" data-name="Ellipse 1" cx="7.5" cy="7.5" r="7.5" transform="translate(466 536)" fill="#000656"/>
    <ellipse id="Ellipse_1-18" data-name="Ellipse 1" cx="7" cy="7.5" rx="7" ry="7.5" transform="translate(495 536)" fill="#000656"/>
    <circle id="Ellipse_1-19" data-name="Ellipse 1" cx="7.5" cy="7.5" r="7.5" transform="translate(523 536)" fill="#000656"/>
    <ellipse id="Ellipse_1-20" data-name="Ellipse 1" cx="7" cy="7.5" rx="7" ry="7.5" transform="translate(552 536)" fill="#000656"/>
    <circle id="Ellipse_1-21" data-name="Ellipse 1" cx="7.5" cy="7.5" r="7.5" transform="translate(580 536)" fill="#000656"/>
    <ellipse id="Ellipse_1-22" data-name="Ellipse 1" cx="7" cy="7.5" rx="7" ry="7.5" transform="translate(609 536)" fill="#000656"/>
    <circle id="Ellipse_1-23" data-name="Ellipse 1" cx="7.5" cy="7.5" r="7.5" transform="translate(637 536)" fill="#000656"/>
    <ellipse id="Ellipse_1-24" data-name="Ellipse 1" cx="7" cy="7.5" rx="7" ry="7.5" transform="translate(666 536)" fill="#000656"/>
    <circle id="Ellipse_1-25" data-name="Ellipse 1" cx="7.5" cy="7.5" r="7.5" transform="translate(694 536)" fill="#000656"/>
    <ellipse id="Ellipse_1-26" data-name="Ellipse 1" cx="7" cy="7.5" rx="7" ry="7.5" transform="translate(723 536)" fill="#000656"/>
    <circle id="Ellipse_1-27" data-name="Ellipse 1" cx="7.5" cy="7.5" r="7.5" transform="translate(751 536)" fill="#000656"/>
    <ellipse id="Ellipse_1-28" data-name="Ellipse 1" cx="7" cy="7.5" rx="7" ry="7.5" transform="translate(780 536)" fill="#000656"/>
    <circle id="Ellipse_1-29" data-name="Ellipse 1" cx="7.5" cy="7.5" r="7.5" transform="translate(808 536)" fill="#000656"/>
    <ellipse id="Ellipse_1-30" data-name="Ellipse 1" cx="7" cy="7.5" rx="7" ry="7.5" transform="translate(837 536)" fill="#000656"/>
    <circle id="Ellipse_1-31" data-name="Ellipse 1" cx="7" cy="7" r="7" transform="translate(438 565)" fill="#000656"/>
    <ellipse id="Ellipse_1-32" data-name="Ellipse 1" cx="7.5" cy="7" rx="7.5" ry="7" transform="translate(466 565)" fill="#000656"/>
    <circle id="Ellipse_1-33" data-name="Ellipse 1" cx="7" cy="7" r="7" transform="translate(495 565)" fill="#000656"/>
    <ellipse id="Ellipse_1-34" data-name="Ellipse 1" cx="7.5" cy="7" rx="7.5" ry="7" transform="translate(523 565)" fill="#000656"/>
    <circle id="Ellipse_1-35" data-name="Ellipse 1" cx="7" cy="7" r="7" transform="translate(552 565)" fill="#000656"/>
    <ellipse id="Ellipse_1-36" data-name="Ellipse 1" cx="7.5" cy="7" rx="7.5" ry="7" transform="translate(580 565)" fill="#000656"/>
    <circle id="Ellipse_1-37" data-name="Ellipse 1" cx="7" cy="7" r="7" transform="translate(609 565)" fill="#000656"/>
    <ellipse id="Ellipse_1-38" data-name="Ellipse 1" cx="7.5" cy="7" rx="7.5" ry="7" transform="translate(637 565)" fill="#000656"/>
    <circle id="Ellipse_1-39" data-name="Ellipse 1" cx="7" cy="7" r="7" transform="translate(666 565)" fill="#000656"/>
    <ellipse id="Ellipse_1-40" data-name="Ellipse 1" cx="7.5" cy="7" rx="7.5" ry="7" transform="translate(694 565)" fill="#000656"/>
    <circle id="Ellipse_1-41" data-name="Ellipse 1" cx="7" cy="7" r="7" transform="translate(723 565)" fill="#000656"/>
    <ellipse id="Ellipse_1-42" data-name="Ellipse 1" cx="7.5" cy="7" rx="7.5" ry="7" transform="translate(751 565)" fill="#000656"/>
    <circle id="Ellipse_1-43" data-name="Ellipse 1" cx="7" cy="7" r="7" transform="translate(780 565)" fill="#000656"/>
    <ellipse id="Ellipse_1-44" data-name="Ellipse 1" cx="7.5" cy="7" rx="7.5" ry="7" transform="translate(808 565)" fill="#000656"/>
    <circle id="Ellipse_1-45" data-name="Ellipse 1" cx="7" cy="7" r="7" transform="translate(837 565)" fill="#000656"/>
    <ellipse id="Ellipse_1-46" data-name="Ellipse 1" cx="7" cy="7.5" rx="7" ry="7.5" transform="translate(438 593)" fill="#000656"/>
    <circle id="Ellipse_1-47" data-name="Ellipse 1" cx="7.5" cy="7.5" r="7.5" transform="translate(466 593)" fill="#000656"/>
    <ellipse id="Ellipse_1-48" data-name="Ellipse 1" cx="7" cy="7.5" rx="7" ry="7.5" transform="translate(495 593)" fill="#000656"/>
    <circle id="Ellipse_1-49" data-name="Ellipse 1" cx="7.5" cy="7.5" r="7.5" transform="translate(523 593)" fill="#000656"/>
    <ellipse id="Ellipse_1-50" data-name="Ellipse 1" cx="7" cy="7.5" rx="7" ry="7.5" transform="translate(552 593)" fill="#000656"/>
    <circle id="Ellipse_1-51" data-name="Ellipse 1" cx="7.5" cy="7.5" r="7.5" transform="translate(580 593)" fill="#000656"/>
    <ellipse id="Ellipse_1-52" data-name="Ellipse 1" cx="7" cy="7.5" rx="7" ry="7.5" transform="translate(609 593)" fill="#000656"/>
    <circle id="Ellipse_1-53" data-name="Ellipse 1" cx="7.5" cy="7.5" r="7.5" transform="translate(637 593)" fill="#000656"/>
    <ellipse id="Ellipse_1-54" data-name="Ellipse 1" cx="7" cy="7.5" rx="7" ry="7.5" transform="translate(666 593)" fill="#000656"/>
    <circle id="Ellipse_1-55" data-name="Ellipse 1" cx="7.5" cy="7.5" r="7.5" transform="translate(694 593)" fill="#000656"/>
    <ellipse id="Ellipse_1-56" data-name="Ellipse 1" cx="7" cy="7.5" rx="7" ry="7.5" transform="translate(723 593)" fill="#000656"/>
    <circle id="Ellipse_1-57" data-name="Ellipse 1" cx="7.5" cy="7.5" r="7.5" transform="translate(751 593)" fill="#000656"/>
    <ellipse id="Ellipse_1-58" data-name="Ellipse 1" cx="7" cy="7.5" rx="7" ry="7.5" transform="translate(780 593)" fill="#000656"/>
    <circle id="Ellipse_1-59" data-name="Ellipse 1" cx="7.5" cy="7.5" r="7.5" transform="translate(808 593)" fill="#000656"/>
    <ellipse id="Ellipse_1-60" data-name="Ellipse 1" cx="7" cy="7.5" rx="7" ry="7.5" transform="translate(837 593)" fill="#000656"/>
    <circle id="Ellipse_1-61" data-name="Ellipse 1" cx="7" cy="7" r="7" transform="translate(438 622)" fill="#000656"/>
    <ellipse id="Ellipse_1-62" data-name="Ellipse 1" cx="7.5" cy="7" rx="7.5" ry="7" transform="translate(466 622)" fill="#000656"/>
    <circle id="Ellipse_1-63" data-name="Ellipse 1" cx="7" cy="7" r="7" transform="translate(495 622)" fill="#000656"/>
    <ellipse id="Ellipse_1-64" data-name="Ellipse 1" cx="7.5" cy="7" rx="7.5" ry="7" transform="translate(523 622)" fill="#000656"/>
    <circle id="Ellipse_1-65" data-name="Ellipse 1" cx="7" cy="7" r="7" transform="translate(552 622)" fill="#000656"/>
    <ellipse id="Ellipse_1-66" data-name="Ellipse 1" cx="7.5" cy="7" rx="7.5" ry="7" transform="translate(580 622)" fill="#000656"/>
    <circle id="Ellipse_1-67" data-name="Ellipse 1" cx="7" cy="7" r="7" transform="translate(609 622)" fill="#000656"/>
    <ellipse id="Ellipse_1-68" data-name="Ellipse 1" cx="7.5" cy="7" rx="7.5" ry="7" transform="translate(637 622)" fill="#000656"/>
    <circle id="Ellipse_1-69" data-name="Ellipse 1" cx="7" cy="7" r="7" transform="translate(666 622)" fill="#000656"/>
    <ellipse id="Ellipse_1-70" data-name="Ellipse 1" cx="7.5" cy="7" rx="7.5" ry="7" transform="translate(694 622)" fill="#000656"/>
    <circle id="Ellipse_1-71" data-name="Ellipse 1" cx="7" cy="7" r="7" transform="translate(723 622)" fill="#000656"/>
    <ellipse id="Ellipse_1-72" data-name="Ellipse 1" cx="7.5" cy="7" rx="7.5" ry="7" transform="translate(751 622)" fill="#000656"/>
    <circle id="Ellipse_1-73" data-name="Ellipse 1" cx="7" cy="7" r="7" transform="translate(780 622)" fill="#000656"/>
    <ellipse id="Ellipse_1-74" data-name="Ellipse 1" cx="7.5" cy="7" rx="7.5" ry="7" transform="translate(808 622)" fill="#000656"/>
    <circle id="Ellipse_1-75" data-name="Ellipse 1" cx="7" cy="7" r="7" transform="translate(837 622)" fill="#000656"/>
    <ellipse id="Ellipse_1-76" data-name="Ellipse 1" cx="7" cy="7.5" rx="7" ry="7.5" transform="translate(438 650)" fill="#000656"/>
    <circle id="Ellipse_1-77" data-name="Ellipse 1" cx="7.5" cy="7.5" r="7.5" transform="translate(466 650)" fill="#000656"/>
    <ellipse id="Ellipse_1-78" data-name="Ellipse 1" cx="7" cy="7.5" rx="7" ry="7.5" transform="translate(495 650)" fill="#000656"/>
    <circle id="Ellipse_1-79" data-name="Ellipse 1" cx="7.5" cy="7.5" r="7.5" transform="translate(523 650)" fill="#000656"/>
    <ellipse id="Ellipse_1-80" data-name="Ellipse 1" cx="7" cy="7.5" rx="7" ry="7.5" transform="translate(552 650)" fill="#000656"/>
    <circle id="Ellipse_1-81" data-name="Ellipse 1" cx="7.5" cy="7.5" r="7.5" transform="translate(580 650)" fill="#000656"/>
    <ellipse id="Ellipse_1-82" data-name="Ellipse 1" cx="7" cy="7.5" rx="7" ry="7.5" transform="translate(609 650)" fill="#000656"/>
    <circle id="Ellipse_1-83" data-name="Ellipse 1" cx="7.5" cy="7.5" r="7.5" transform="translate(637 650)" fill="#000656"/>
    <ellipse id="Ellipse_1-84" data-name="Ellipse 1" cx="7" cy="7.5" rx="7" ry="7.5" transform="translate(666 650)" fill="#000656"/>
    <circle id="Ellipse_1-85" data-name="Ellipse 1" cx="7.5" cy="7.5" r="7.5" transform="translate(694 650)" fill="#000656"/>
    <ellipse id="Ellipse_1-86" data-name="Ellipse 1" cx="7" cy="7.5" rx="7" ry="7.5" transform="translate(723 650)" fill="#000656"/>
    <circle id="Ellipse_1-87" data-name="Ellipse 1" cx="7.5" cy="7.5" r="7.5" transform="translate(751 650)" fill="#000656"/>
    <ellipse id="Ellipse_1-88" data-name="Ellipse 1" cx="7" cy="7.5" rx="7" ry="7.5" transform="translate(780 650)" fill="#000656"/>
    <circle id="Ellipse_1-89" data-name="Ellipse 1" cx="7.5" cy="7.5" r="7.5" transform="translate(808 650)" fill="#000656"/>
    <ellipse id="Ellipse_1-90" data-name="Ellipse 1" cx="7" cy="7.5" rx="7" ry="7.5" transform="translate(837 650)" fill="#000656"/>
    <circle id="Ellipse_1-91" data-name="Ellipse 1" cx="7" cy="7" r="7" transform="translate(438 679)" fill="#000656"/>
    <ellipse id="Ellipse_1-92" data-name="Ellipse 1" cx="7.5" cy="7" rx="7.5" ry="7" transform="translate(466 679)" fill="#000656"/>
    <circle id="Ellipse_1-93" data-name="Ellipse 1" cx="7" cy="7" r="7" transform="translate(495 679)" fill="#000656"/>
    <ellipse id="Ellipse_1-94" data-name="Ellipse 1" cx="7.5" cy="7" rx="7.5" ry="7" transform="translate(523 679)" fill="#000656"/>
    <circle id="Ellipse_1-95" data-name="Ellipse 1" cx="7" cy="7" r="7" transform="translate(552 679)" fill="#000656"/>
    <ellipse id="Ellipse_1-96" data-name="Ellipse 1" cx="7.5" cy="7" rx="7.5" ry="7" transform="translate(580 679)" fill="#000656"/>
    <circle id="Ellipse_1-97" data-name="Ellipse 1" cx="7" cy="7" r="7" transform="translate(609 679)" fill="#000656"/>
    <ellipse id="Ellipse_1-98" data-name="Ellipse 1" cx="7.5" cy="7" rx="7.5" ry="7" transform="translate(637 679)" fill="#000656"/>
    <circle id="Ellipse_1-99" data-name="Ellipse 1" cx="7" cy="7" r="7" transform="translate(666 679)" fill="#000656"/>
    <ellipse id="Ellipse_1-100" data-name="Ellipse 1" cx="7.5" cy="7" rx="7.5" ry="7" transform="translate(694 679)" fill="#000656"/>
    <circle id="Ellipse_1-101" data-name="Ellipse 1" cx="7" cy="7" r="7" transform="translate(723 679)" fill="#000656"/>
    <ellipse id="Ellipse_1-102" data-name="Ellipse 1" cx="7.5" cy="7" rx="7.5" ry="7" transform="translate(751 679)" fill="#000656"/>
    <circle id="Ellipse_1-103" data-name="Ellipse 1" cx="7" cy="7" r="7" transform="translate(780 679)" fill="#000656"/>
    <ellipse id="Ellipse_1-104" data-name="Ellipse 1" cx="7.5" cy="7" rx="7.5" ry="7" transform="translate(808 679)" fill="#000656"/>
    <circle id="Ellipse_1-105" data-name="Ellipse 1" cx="7" cy="7" r="7" transform="translate(837 679)" fill="#000656"/>
    <ellipse id="Ellipse_1-106" data-name="Ellipse 1" cx="7" cy="7.5" rx="7" ry="7.5" transform="translate(438 707)" fill="#000656"/>
    <circle id="Ellipse_1-107" data-name="Ellipse 1" cx="7.5" cy="7.5" r="7.5" transform="translate(466 707)" fill="#000656"/>
    <ellipse id="Ellipse_1-108" data-name="Ellipse 1" cx="7" cy="7.5" rx="7" ry="7.5" transform="translate(495 707)" fill="#000656"/>
    <circle id="Ellipse_1-109" data-name="Ellipse 1" cx="7.5" cy="7.5" r="7.5" transform="translate(523 707)" fill="#000656"/>
    <ellipse id="Ellipse_1-110" data-name="Ellipse 1" cx="7" cy="7.5" rx="7" ry="7.5" transform="translate(552 707)" fill="#000656"/>
    <circle id="Ellipse_1-111" data-name="Ellipse 1" cx="7.5" cy="7.5" r="7.5" transform="translate(580 707)" fill="#000656"/>
    <ellipse id="Ellipse_1-112" data-name="Ellipse 1" cx="7" cy="7.5" rx="7" ry="7.5" transform="translate(609 707)" fill="#000656"/>
    <circle id="Ellipse_1-113" data-name="Ellipse 1" cx="7.5" cy="7.5" r="7.5" transform="translate(637 707)" fill="#000656"/>
    <ellipse id="Ellipse_1-114" data-name="Ellipse 1" cx="7" cy="7.5" rx="7" ry="7.5" transform="translate(666 707)" fill="#000656"/>
    <circle id="Ellipse_1-115" data-name="Ellipse 1" cx="7.5" cy="7.5" r="7.5" transform="translate(694 707)" fill="#000656"/>
    <ellipse id="Ellipse_1-116" data-name="Ellipse 1" cx="7" cy="7.5" rx="7" ry="7.5" transform="translate(723 707)" fill="#000656"/>
    <circle id="Ellipse_1-117" data-name="Ellipse 1" cx="7.5" cy="7.5" r="7.5" transform="translate(751 707)" fill="#000656"/>
    <ellipse id="Ellipse_1-118" data-name="Ellipse 1" cx="7" cy="7.5" rx="7" ry="7.5" transform="translate(780 707)" fill="#000656"/>
    <circle id="Ellipse_1-119" data-name="Ellipse 1" cx="7.5" cy="7.5" r="7.5" transform="translate(808 707)" fill="#000656"/>
    <ellipse id="Ellipse_1-120" data-name="Ellipse 1" cx="7" cy="7.5" rx="7" ry="7.5" transform="translate(837 707)" fill="#000656"/>
    <circle id="Ellipse_1-121" data-name="Ellipse 1" cx="7" cy="7" r="7" transform="translate(438 736)" fill="#000656"/>
    <ellipse id="Ellipse_1-122" data-name="Ellipse 1" cx="7.5" cy="7" rx="7.5" ry="7" transform="translate(466 736)" fill="#000656"/>
    <circle id="Ellipse_1-123" data-name="Ellipse 1" cx="7" cy="7" r="7" transform="translate(495 736)" fill="#000656"/>
    <ellipse id="Ellipse_1-124" data-name="Ellipse 1" cx="7.5" cy="7" rx="7.5" ry="7" transform="translate(523 736)" fill="#000656"/>
    <circle id="Ellipse_1-125" data-name="Ellipse 1" cx="7" cy="7" r="7" transform="translate(552 736)" fill="#000656"/>
    <ellipse id="Ellipse_1-126" data-name="Ellipse 1" cx="7.5" cy="7" rx="7.5" ry="7" transform="translate(580 736)" fill="#000656"/>
    <circle id="Ellipse_1-127" data-name="Ellipse 1" cx="7" cy="7" r="7" transform="translate(609 736)" fill="#000656"/>
    <ellipse id="Ellipse_1-128" data-name="Ellipse 1" cx="7.5" cy="7" rx="7.5" ry="7" transform="translate(637 736)" fill="#000656"/>
    <circle id="Ellipse_1-129" data-name="Ellipse 1" cx="7" cy="7" r="7" transform="translate(666 736)" fill="#000656"/>
    <ellipse id="Ellipse_1-130" data-name="Ellipse 1" cx="7.5" cy="7" rx="7.5" ry="7" transform="translate(694 736)" fill="#000656"/>
    <circle id="Ellipse_1-131" data-name="Ellipse 1" cx="7" cy="7" r="7" transform="translate(723 736)" fill="#000656"/>
    <ellipse id="Ellipse_1-132" data-name="Ellipse 1" cx="7.5" cy="7" rx="7.5" ry="7" transform="translate(751 736)" fill="#000656"/>
    <circle id="Ellipse_1-133" data-name="Ellipse 1" cx="7" cy="7" r="7" transform="translate(780 736)" fill="#000656"/>
    <ellipse id="Ellipse_1-134" data-name="Ellipse 1" cx="7.5" cy="7" rx="7.5" ry="7" transform="translate(808 736)" fill="#000656"/>
    <circle id="Ellipse_1-135" data-name="Ellipse 1" cx="7" cy="7" r="7" transform="translate(837 736)" fill="#000656"/>
    <ellipse id="Ellipse_1-136" data-name="Ellipse 1" cx="7" cy="7.5" rx="7" ry="7.5" transform="translate(438 764)" fill="#000656"/>
    <circle id="Ellipse_1-137" data-name="Ellipse 1" cx="7.5" cy="7.5" r="7.5" transform="translate(466 764)" fill="#000656"/>
    <ellipse id="Ellipse_1-138" data-name="Ellipse 1" cx="7" cy="7.5" rx="7" ry="7.5" transform="translate(495 764)" fill="#000656"/>
    <circle id="Ellipse_1-139" data-name="Ellipse 1" cx="7.5" cy="7.5" r="7.5" transform="translate(523 764)" fill="#000656"/>
    <ellipse id="Ellipse_1-140" data-name="Ellipse 1" cx="7" cy="7.5" rx="7" ry="7.5" transform="translate(552 764)" fill="#000656"/>
    <circle id="Ellipse_1-141" data-name="Ellipse 1" cx="7.5" cy="7.5" r="7.5" transform="translate(580 764)" fill="#000656"/>
    <ellipse id="Ellipse_1-142" data-name="Ellipse 1" cx="7" cy="7.5" rx="7" ry="7.5" transform="translate(609 764)" fill="#000656"/>
    <circle id="Ellipse_1-143" data-name="Ellipse 1" cx="7.5" cy="7.5" r="7.5" transform="translate(637 764)" fill="#000656"/>
    <ellipse id="Ellipse_1-144" data-name="Ellipse 1" cx="7" cy="7.5" rx="7" ry="7.5" transform="translate(666 764)" fill="#000656"/>
    <circle id="Ellipse_1-145" data-name="Ellipse 1" cx="7.5" cy="7.5" r="7.5" transform="translate(694 764)" fill="#000656"/>
    <ellipse id="Ellipse_1-146" data-name="Ellipse 1" cx="7" cy="7.5" rx="7" ry="7.5" transform="translate(723 764)" fill="#000656"/>
    <circle id="Ellipse_1-147" data-name="Ellipse 1" cx="7.5" cy="7.5" r="7.5" transform="translate(751 764)" fill="#000656"/>
    <ellipse id="Ellipse_1-148" data-name="Ellipse 1" cx="7" cy="7.5" rx="7" ry="7.5" transform="translate(780 764)" fill="#000656"/>
    <circle id="Ellipse_1-149" data-name="Ellipse 1" cx="7.5" cy="7.5" r="7.5" transform="translate(808 764)" fill="#000656"/>
    <ellipse id="Ellipse_1-150" data-name="Ellipse 1" cx="7" cy="7.5" rx="7" ry="7.5" transform="translate(837 764)" fill="#000656"/>
    <circle id="Ellipse_1-151" data-name="Ellipse 1" cx="7" cy="7" r="7" transform="translate(438 793)" fill="#000656"/>
    <ellipse id="Ellipse_1-152" data-name="Ellipse 1" cx="7.5" cy="7" rx="7.5" ry="7" transform="translate(466 793)" fill="#000656"/>
    <circle id="Ellipse_1-153" data-name="Ellipse 1" cx="7" cy="7" r="7" transform="translate(495 793)" fill="#000656"/>
    <ellipse id="Ellipse_1-154" data-name="Ellipse 1" cx="7.5" cy="7" rx="7.5" ry="7" transform="translate(523 793)" fill="#000656"/>
    <circle id="Ellipse_1-155" data-name="Ellipse 1" cx="7" cy="7" r="7" transform="translate(552 793)" fill="#000656"/>
    <ellipse id="Ellipse_1-156" data-name="Ellipse 1" cx="7.5" cy="7" rx="7.5" ry="7" transform="translate(580 793)" fill="#000656"/>
    <circle id="Ellipse_1-157" data-name="Ellipse 1" cx="7" cy="7" r="7" transform="translate(609 793)" fill="#000656"/>
    <ellipse id="Ellipse_1-158" data-name="Ellipse 1" cx="7.5" cy="7" rx="7.5" ry="7" transform="translate(637 793)" fill="#000656"/>
    <circle id="Ellipse_1-159" data-name="Ellipse 1" cx="7" cy="7" r="7" transform="translate(666 793)" fill="#000656"/>
    <ellipse id="Ellipse_1-160" data-name="Ellipse 1" cx="7.5" cy="7" rx="7.5" ry="7" transform="translate(694 793)" fill="#000656"/>
    <circle id="Ellipse_1-161" data-name="Ellipse 1" cx="7" cy="7" r="7" transform="translate(723 793)" fill="#000656"/>
    <ellipse id="Ellipse_1-162" data-name="Ellipse 1" cx="7.5" cy="7" rx="7.5" ry="7" transform="translate(751 793)" fill="#000656"/>
    <circle id="Ellipse_1-163" data-name="Ellipse 1" cx="7" cy="7" r="7" transform="translate(780 793)" fill="#000656"/>
    <ellipse id="Ellipse_1-164" data-name="Ellipse 1" cx="7.5" cy="7" rx="7.5" ry="7" transform="translate(808 793)" fill="#000656"/>
    <circle id="Ellipse_1-165" data-name="Ellipse 1" cx="7" cy="7" r="7" transform="translate(837 793)" fill="#000656"/>
    <ellipse id="Ellipse_1-166" data-name="Ellipse 1" cx="7" cy="7.5" rx="7" ry="7.5" transform="translate(438 821)" fill="#000656"/>
    <circle id="Ellipse_1-167" data-name="Ellipse 1" cx="7.5" cy="7.5" r="7.5" transform="translate(466 821)" fill="#000656"/>
    <ellipse id="Ellipse_1-168" data-name="Ellipse 1" cx="7" cy="7.5" rx="7" ry="7.5" transform="translate(495 821)" fill="#000656"/>
    <circle id="Ellipse_1-169" data-name="Ellipse 1" cx="7.5" cy="7.5" r="7.5" transform="translate(523 821)" fill="#000656"/>
    <ellipse id="Ellipse_1-170" data-name="Ellipse 1" cx="7" cy="7.5" rx="7" ry="7.5" transform="translate(552 821)" fill="#000656"/>
    <circle id="Ellipse_1-171" data-name="Ellipse 1" cx="7.5" cy="7.5" r="7.5" transform="translate(580 821)" fill="#000656"/>
    <ellipse id="Ellipse_1-172" data-name="Ellipse 1" cx="7" cy="7.5" rx="7" ry="7.5" transform="translate(609 821)" fill="#000656"/>
    <circle id="Ellipse_1-173" data-name="Ellipse 1" cx="7.5" cy="7.5" r="7.5" transform="translate(637 821)" fill="#000656"/>
    <ellipse id="Ellipse_1-174" data-name="Ellipse 1" cx="7" cy="7.5" rx="7" ry="7.5" transform="translate(666 821)" fill="#000656"/>
    <circle id="Ellipse_1-175" data-name="Ellipse 1" cx="7.5" cy="7.5" r="7.5" transform="translate(694 821)" fill="#000656"/>
    <ellipse id="Ellipse_1-176" data-name="Ellipse 1" cx="7" cy="7.5" rx="7" ry="7.5" transform="translate(723 821)" fill="#000656"/>
    <circle id="Ellipse_1-177" data-name="Ellipse 1" cx="7.5" cy="7.5" r="7.5" transform="translate(751 821)" fill="#000656"/>
    <ellipse id="Ellipse_1-178" data-name="Ellipse 1" cx="7" cy="7.5" rx="7" ry="7.5" transform="translate(780 821)" fill="#000656"/>
    <circle id="Ellipse_1-179" data-name="Ellipse 1" cx="7.5" cy="7.5" r="7.5" transform="translate(808 821)" fill="#000656"/>
    <ellipse id="Ellipse_1-180" data-name="Ellipse 1" cx="7" cy="7.5" rx="7" ry="7.5" transform="translate(837 821)" fill="#000656"/>
    <circle id="Ellipse_1-181" data-name="Ellipse 1" cx="7" cy="7" r="7" transform="translate(438 850)" fill="#000656"/>
    <ellipse id="Ellipse_1-182" data-name="Ellipse 1" cx="7.5" cy="7" rx="7.5" ry="7" transform="translate(466 850)" fill="#000656"/>
    <circle id="Ellipse_1-183" data-name="Ellipse 1" cx="7" cy="7" r="7" transform="translate(495 850)" fill="#000656"/>
    <ellipse id="Ellipse_1-184" data-name="Ellipse 1" cx="7.5" cy="7" rx="7.5" ry="7" transform="translate(523 850)" fill="#000656"/>
    <circle id="Ellipse_1-185" data-name="Ellipse 1" cx="7" cy="7" r="7" transform="translate(552 850)" fill="#000656"/>
    <ellipse id="Ellipse_1-186" data-name="Ellipse 1" cx="7.5" cy="7" rx="7.5" ry="7" transform="translate(580 850)" fill="#000656"/>
    <circle id="Ellipse_1-187" data-name="Ellipse 1" cx="7" cy="7" r="7" transform="translate(609 850)" fill="#000656"/>
    <ellipse id="Ellipse_1-188" data-name="Ellipse 1" cx="7.5" cy="7" rx="7.5" ry="7" transform="translate(637 850)" fill="#000656"/>
    <circle id="Ellipse_1-189" data-name="Ellipse 1" cx="7" cy="7" r="7" transform="translate(666 850)" fill="#000656"/>
    <ellipse id="Ellipse_1-190" data-name="Ellipse 1" cx="7.5" cy="7" rx="7.5" ry="7" transform="translate(694 850)" fill="#000656"/>
    <circle id="Ellipse_1-191" data-name="Ellipse 1" cx="7" cy="7" r="7" transform="translate(723 850)" fill="#000656"/>
    <ellipse id="Ellipse_1-192" data-name="Ellipse 1" cx="7.5" cy="7" rx="7.5" ry="7" transform="translate(751 850)" fill="#000656"/>
    <circle id="Ellipse_1-193" data-name="Ellipse 1" cx="7" cy="7" r="7" transform="translate(780 850)" fill="#000656"/>
    <ellipse id="Ellipse_1-194" data-name="Ellipse 1" cx="7.5" cy="7" rx="7.5" ry="7" transform="translate(808 850)" fill="#000656"/>
    <circle id="Ellipse_1-195" data-name="Ellipse 1" cx="7" cy="7" r="7" transform="translate(837 850)" fill="#000656"/>
    <ellipse id="Ellipse_1-196" data-name="Ellipse 1" cx="7" cy="7.5" rx="7" ry="7.5" transform="translate(438 878)" fill="#000656"/>
    <circle id="Ellipse_1-197" data-name="Ellipse 1" cx="7.5" cy="7.5" r="7.5" transform="translate(466 878)" fill="#000656"/>
    <ellipse id="Ellipse_1-198" data-name="Ellipse 1" cx="7" cy="7.5" rx="7" ry="7.5" transform="translate(495 878)" fill="#000656"/>
    <circle id="Ellipse_1-199" data-name="Ellipse 1" cx="7.5" cy="7.5" r="7.5" transform="translate(523 878)" fill="#000656"/>
    <ellipse id="Ellipse_1-200" data-name="Ellipse 1" cx="7" cy="7.5" rx="7" ry="7.5" transform="translate(552 878)" fill="#000656"/>
    <circle id="Ellipse_1-201" data-name="Ellipse 1" cx="7.5" cy="7.5" r="7.5" transform="translate(580 878)" fill="#000656"/>
    <ellipse id="Ellipse_1-202" data-name="Ellipse 1" cx="7" cy="7.5" rx="7" ry="7.5" transform="translate(609 878)" fill="#000656"/>
    <circle id="Ellipse_1-203" data-name="Ellipse 1" cx="7.5" cy="7.5" r="7.5" transform="translate(637 878)" fill="#000656"/>
    <ellipse id="Ellipse_1-204" data-name="Ellipse 1" cx="7" cy="7.5" rx="7" ry="7.5" transform="translate(666 878)" fill="#000656"/>
    <circle id="Ellipse_1-205" data-name="Ellipse 1" cx="7.5" cy="7.5" r="7.5" transform="translate(694 878)" fill="#000656"/>
    <ellipse id="Ellipse_1-206" data-name="Ellipse 1" cx="7" cy="7.5" rx="7" ry="7.5" transform="translate(723 878)" fill="#000656"/>
    <circle id="Ellipse_1-207" data-name="Ellipse 1" cx="7.5" cy="7.5" r="7.5" transform="translate(751 878)" fill="#000656"/>
    <ellipse id="Ellipse_1-208" data-name="Ellipse 1" cx="7" cy="7.5" rx="7" ry="7.5" transform="translate(780 878)" fill="#000656"/>
    <circle id="Ellipse_1-209" data-name="Ellipse 1" cx="7.5" cy="7.5" r="7.5" transform="translate(808 878)" fill="#000656"/>
    <ellipse id="Ellipse_1-210" data-name="Ellipse 1" cx="7" cy="7.5" rx="7" ry="7.5" transform="translate(837 878)" fill="#000656"/>
    <circle id="Ellipse_1-211" data-name="Ellipse 1" cx="7" cy="7" r="7" transform="translate(438 907)" fill="#000656"/>
    <ellipse id="Ellipse_1-212" data-name="Ellipse 1" cx="7.5" cy="7" rx="7.5" ry="7" transform="translate(466 907)" fill="#000656"/>
    <circle id="Ellipse_1-213" data-name="Ellipse 1" cx="7" cy="7" r="7" transform="translate(495 907)" fill="#000656"/>
    <ellipse id="Ellipse_1-214" data-name="Ellipse 1" cx="7.5" cy="7" rx="7.5" ry="7" transform="translate(523 907)" fill="#000656"/>
    <circle id="Ellipse_1-215" data-name="Ellipse 1" cx="7" cy="7" r="7" transform="translate(552 907)" fill="#000656"/>
    <ellipse id="Ellipse_1-216" data-name="Ellipse 1" cx="7.5" cy="7" rx="7.5" ry="7" transform="translate(580 907)" fill="#000656"/>
    <circle id="Ellipse_1-217" data-name="Ellipse 1" cx="7" cy="7" r="7" transform="translate(609 907)" fill="#000656"/>
    <ellipse id="Ellipse_1-218" data-name="Ellipse 1" cx="7.5" cy="7" rx="7.5" ry="7" transform="translate(637 907)" fill="#000656"/>
    <circle id="Ellipse_1-219" data-name="Ellipse 1" cx="7" cy="7" r="7" transform="translate(666 907)" fill="#000656"/>
    <ellipse id="Ellipse_1-220" data-name="Ellipse 1" cx="7.5" cy="7" rx="7.5" ry="7" transform="translate(694 907)" fill="#000656"/>
    <circle id="Ellipse_1-221" data-name="Ellipse 1" cx="7" cy="7" r="7" transform="translate(723 907)" fill="#000656"/>
    <ellipse id="Ellipse_1-222" data-name="Ellipse 1" cx="7.5" cy="7" rx="7.5" ry="7" transform="translate(751 907)" fill="#000656"/>
    <circle id="Ellipse_1-223" data-name="Ellipse 1" cx="7" cy="7" r="7" transform="translate(780 907)" fill="#000656"/>
    <ellipse id="Ellipse_1-224" data-name="Ellipse 1" cx="7.5" cy="7" rx="7.5" ry="7" transform="translate(808 907)" fill="#000656"/>
    <circle id="Ellipse_1-225" data-name="Ellipse 1" cx="7" cy="7" r="7" transform="translate(837 907)" fill="#000656"/>
  </g>
</svg>
