<svg xmlns="http://www.w3.org/2000/svg" width="21.405" height="47.739" viewBox="0 0 21.405 47.739">
  <path id="Icon_simple-mongodb" data-name="Icon simple-mongodb" d="M30.936,18.933C28.424,7.873,22.5,4.239,21.862,2.848A17.873,17.873,0,0,1,20.4,0c0,.038-.008.062-.01.1V.123h0c0,.03-.006.05-.008.078v.03h0c0,.02,0,.036,0,.052V.334H20.37a.377.377,0,0,1-.006.05V.426h0a.142.142,0,0,1,0,.042v.04h0c0,.02,0,.044,0,.064v0c-.006.034-.012.068-.018.1V.69h0a.1.1,0,0,0-.006.024V.748h-.006V.792H20.3V.827h-.01V.869h-.008V.907h-.008V.941h-.012V.969h-.008V1h-.008v.028h-.01v.026h-.006v.03h-.008a.012.012,0,0,0,0,.008v.02h-.006a.025.025,0,0,0,0,.012V1.14h0a.088.088,0,0,0,0,.02c-.006.014-.014.028-.02.042v0a.061.061,0,0,0-.01.014v.016h-.008v.016h-.01v.016h-.006v.02h-.012v.028h-.008v.008h-.008v.016h-.008v.022h-.008v.016H20.1V1.4h-.008v.016h-.01V1.43h-.006v.02h-.01v.016h-.008v.012H20.05v.016h-.012v.018H20.03v.012h-.01V1.54h-.008v.022H20v.008H20v.016h-.012v.008h-.008v.02h-.008v.008H19.96v.016h-.01v.012h-.006l0,.008v.008h0s0,0,0,.008v0h0a.032.032,0,0,1-.008.014v.006h0a.373.373,0,0,0-.024.036v0a.09.09,0,0,0-.018.02v0h0s-.006,0-.006.006v.006h0l-.006.006v0h0s0,0-.006.008v.008h-.006l0,0v0h0s0,0,0,.006v.006h-.008s0,0,0,.006V1.83h-.006v.008h-.008V1.85H19.8v.016h-.01V1.85h-.01v.008h-.008V1.87h-.01v.016h-.01v.008h-.008v.012h-.008v.008h-.008v.016h-.012v.008H19.71v.012H19.7v.008h-.008v.01h-.01v.02h0V2h-.012v.01h-.008v0H19.65v.008h-.01v.02h-.008v.008h-.01v.008h-.008v.012H19.6v.008h-.01v.008h-.008v.008h-.008v.02H19.57v.01h-.012v.008H19.55v.008h-.01v.012h-.008v.008h-.01v.014h-.008v.008H19.5v.012h0V2.2h-.008V2.2h-.01v.008h-.008v.012h-.01v.008h-.006a.006.006,0,0,0,0,0v0h0l-.008.008-.008.006v.012h-.008v.01h-.008v.008h-.008v.008h-.006L19.4,2.3V2.3h0l0,0v.006h0a.2.2,0,0,1-.028.032l-.024.02a.728.728,0,0,0-.078.064.419.419,0,0,0-.044.034v0h0l-.1.078v0l-.147.123v0h0c-.113.093-.233.2-.37.316v0h0c-.336.294-.736.672-1.184,1.13l-.03.03-.008.008A27.387,27.387,0,0,0,9.953,22.207a20.619,20.619,0,0,0,.012,2.276V24.5a21.672,21.672,0,0,0,2.84,9.46v0a24.915,24.915,0,0,0,1.842,2.795v0a25.454,25.454,0,0,0,5,5.025,16.621,16.621,0,0,1,.8,5.528l1.281.428a23.857,23.857,0,0,1,.105-5.017,3.1,3.1,0,0,1,.694-1.317,16.67,16.67,0,0,0,1.585-1.283c.036-.038.056-.072.088-.107,3.025-2.821,8.677-9.767,6.739-21.083Z" transform="translate(-9.927)" fill="#fff"/>
</svg>
