<svg id="Layer_2" data-name="Layer 2" xmlns="http://www.w3.org/2000/svg" width="165.519" height="81.892" viewBox="0 0 165.519 81.892">
  <g id="Layer_1" data-name="Layer 1" transform="translate(0 0)">
    <path id="Path_9" data-name="Path 9" d="M12.939,14.016a22.079,22.079,0,0,1,5.967-1.985,3.917,3.917,0,0,0,.705-.209,10.445,10.445,0,0,0,1.306-.927,3.708,3.708,0,0,1,.757-.444,2.872,2.872,0,0,1,3.186.836,4.857,4.857,0,0,1,1.7,3.617,3.591,3.591,0,0,1-.77,2.194A3.3,3.3,0,0,1,23.946,18.4a2.794,2.794,0,0,1-1.462.1,24.808,24.808,0,0,1-2.468-1.058,6.319,6.319,0,0,0-5.223,0,5.6,5.6,0,0,0-1.958,1.306,2.115,2.115,0,0,0-.731,1.462c0,.953,1.11,1.227,3.356.992a28.359,28.359,0,0,1,5.9-.1c3.813.574,5.758,2.846,5.745,6.241a9.061,9.061,0,0,1-3.917,7.521A17.143,17.143,0,0,1,12.861,37.7,46.037,46.037,0,0,1,7,37.309a24.807,24.807,0,0,1-4.387-.888A3.8,3.8,0,0,1,.783,34.881,3.917,3.917,0,0,1,0,32.6a1.306,1.306,0,0,1,.418-.953,2.977,2.977,0,0,1,1.306-.705,2.311,2.311,0,0,1,1.541.1A11.921,11.921,0,0,1,5.405,32.5a5.849,5.849,0,0,0,2.52.914,12.234,12.234,0,0,0,3.6.17,6.528,6.528,0,0,0,2.611-.731c.666-.379,1.005-.823,1.005-1.306a1.175,1.175,0,0,0-.783-1.071A7.508,7.508,0,0,0,11.751,30c-2.076-.1-3.643-.183-4.727-.287a19.663,19.663,0,0,1-2.99-.548C1.854,28.587.757,27.817.757,26.433a5,5,0,0,1,.862-2.455,18.554,18.554,0,0,1,2.455-3.134,33.334,33.334,0,0,1,8.865-6.829Z" transform="translate(0 3.14)" fill="#fff"/>
    <path id="Path_10" data-name="Path 10" d="M32.459,6.672q6.124-1.8,12.365-3.094a17.143,17.143,0,0,0,3.669-1.306A4.7,4.7,0,0,1,49.8,1.828c1.306-.222,2.533.653,3.747,2.611a12.456,12.456,0,0,1,1.828,6.528,4.74,4.74,0,0,1-1.306,3.591A3.747,3.747,0,0,1,51.783,15.6a2.99,2.99,0,0,1-2.194-.483,7.051,7.051,0,0,1-1.828-2.363,8.213,8.213,0,0,0-1.24-1.972,1.214,1.214,0,0,0-1.084-.326,1.606,1.606,0,0,0-1.306,1.018,7.1,7.1,0,0,0-.379,2.716V28.725a9.14,9.14,0,0,0,.535,3.225A2.872,2.872,0,0,0,45.842,33.4a5.223,5.223,0,0,1,1.737,1.1,2.233,2.233,0,0,1,.457,1.515,3.094,3.094,0,0,1-2.311,2.859,20.042,20.042,0,0,1-7.051.953,28.934,28.934,0,0,1-8.578-.914c-1.554-.509-2.337-1.306-2.337-2.481a1.75,1.75,0,0,1,.862-1.488,13.774,13.774,0,0,1,1.645-.653,1.985,1.985,0,0,0,1.214-1.071,11.072,11.072,0,0,0,.548-2.872c.118-1.306.235-3.277.339-6.084s.17-5.223.17-7.273A9.531,9.531,0,0,0,32.211,14c-.222-.561-.574-.77-1.071-.653a3.329,3.329,0,0,0-1.789,1.776,18.123,18.123,0,0,1-2.533,3.708,4.935,4.935,0,0,1-2.272,1.4,2.22,2.22,0,0,1-2.037-.392,2.494,2.494,0,0,1-.8-2.1,9.466,9.466,0,0,1,.64-3.121,18.514,18.514,0,0,1,1.71-3.564A7.521,7.521,0,0,1,27.51,7.6a4.557,4.557,0,0,1,1.11-.17c.783-.144,1.462-.144,2-.3S31.767,6.868,32.459,6.672Z" transform="translate(6.633 0.548)" fill="#fff"/>
    <path id="Path_11" data-name="Path 11" d="M53.227,1.658q6.1-.588,12.286-.692C68.007.927,69.835.888,70.984.783A16.2,16.2,0,0,0,74.34.144,2.324,2.324,0,0,1,75.123,0a2.886,2.886,0,0,1,2.22,1.7,12.077,12.077,0,0,1,1.58,6.293,5.223,5.223,0,0,1-.666,2.846,1.958,1.958,0,0,1-1.8.979,1.893,1.893,0,0,1-1.306-.431,7.207,7.207,0,0,1-1.188-1.75,5.536,5.536,0,0,0-2.69-2.611,14.362,14.362,0,0,0-5.314-.653c-1.854,0-2.977.444-3.369,1.227a4.335,4.335,0,0,0-.379,1.684v5.353c0,1.136.157,1.828.47,2.1a4.844,4.844,0,0,0,2.533.366,1.919,1.919,0,0,0,1.462-.509,3.147,3.147,0,0,0,.574-1.776,15.523,15.523,0,0,1,.34-2.246,2.389,2.389,0,0,1,.666-1.071,1.528,1.528,0,0,1,1.175-.5,2.011,2.011,0,0,1,1.684,1.123,8.9,8.9,0,0,1,.849,2.912,26.217,26.217,0,0,1,.353,4.361,19.481,19.481,0,0,1-1.175,7.338,2.128,2.128,0,0,1-1.972,1.554,1.306,1.306,0,0,1-1.136-.5,5.706,5.706,0,0,1-.444-2.063c-.235-2.141-1.306-3.212-3.173-3.186a1.5,1.5,0,0,0-1.475.823,7.834,7.834,0,0,0-.392,2.99q0,1.306.157,3.447a20.161,20.161,0,0,0,.3,2.833,1.593,1.593,0,0,0,1.188,1.175,11.907,11.907,0,0,0,3.395.261,10.941,10.941,0,0,0,5.432-1.071A7.7,7.7,0,0,0,76,29.09a7.155,7.155,0,0,1,1.214-2.18,1.8,1.8,0,0,1,1.4-.535,2.037,2.037,0,0,1,1.671,1.071,4.7,4.7,0,0,1,.666,2.611,15.275,15.275,0,0,1-.744,4.191,22.406,22.406,0,0,1-1.828,4.478,5.144,5.144,0,0,1-.914,1.306,1.306,1.306,0,0,1-.914.326,7.05,7.05,0,0,1-1.306-.17,24.52,24.52,0,0,0-4.113-.431H50.773a2.729,2.729,0,0,1-1.959-.588,2.272,2.272,0,0,1-.666-1.75,1.815,1.815,0,0,1,.287-1.149,4.426,4.426,0,0,1,1.306-.94,2.807,2.807,0,0,0,1.058-.9,4.348,4.348,0,0,0,.535-1.567,63.39,63.39,0,0,0,.8-11.333c0-7.168-.392-11.66-1.149-13.448a1.684,1.684,0,0,0-.535-.731,4.074,4.074,0,0,0-1.136-.444A1.723,1.723,0,0,1,48,4.975a3.055,3.055,0,0,1,.444-1.619A2.611,2.611,0,0,1,49.65,2.3a15.864,15.864,0,0,1,3.578-.64Z" transform="translate(14.667 0)" fill="#fff"/>
    <path id="Path_12" data-name="Path 12" d="M106.931,14.957C103.393,21.3,99.815,28.484,96.225,36.24a10.3,10.3,0,0,1-1.88,3,3.238,3.238,0,0,1-2.272.823,3.76,3.76,0,0,1-2.037-.561A3.46,3.46,0,0,1,88.965,38.5a11.307,11.307,0,0,1-.979-2.076c-3.238-8.108-6.489-16.491-9.753-25.082a11.972,11.972,0,0,0-1.449-3A3.734,3.734,0,0,0,74.9,7.163a2,2,0,0,1-1.449-2.18A3.225,3.225,0,0,1,75.974,1.9a15.172,15.172,0,0,1,7.194-.235A22.053,22.053,0,0,1,90.3,3.729c1.515.849,2.259,1.841,2.259,2.964a2.089,2.089,0,0,1-1.227,1.8c-.627.353-.94.757-.94,1.175a5.47,5.47,0,0,0,.418,1.671q1.469,3.917,2.951,7.834c.418,1.123.9,1.71,1.436,1.776a1.488,1.488,0,0,0,1.384-.653,16.151,16.151,0,0,0,1.645-3.029c1.227-2.69,1.945-4.217,2.154-4.687a3.251,3.251,0,0,0,.3-1.136,2.311,2.311,0,0,0-1.1-1.684,2.611,2.611,0,0,1-1.227-2c0-1.985,2.507-2.4,7.442-.862a19.076,19.076,0,0,1,5.223,2.285,3.068,3.068,0,0,1,1.5,2.455c0,1.084-.653,1.5-1.972,1.306a3.8,3.8,0,0,0-1.815-.078,4.87,4.87,0,0,0-1.8,2.089Z" transform="translate(22.447 0.41)" fill="#fff"/>
    <path id="Path_13" data-name="Path 13" d="M108.556,9.477q5.8,2.324,11.464,5.223c2.272,1.136,3.917,2,4.948,2.507s2.037.94,3,1.306a6.07,6.07,0,0,1,.705.339,6.359,6.359,0,0,1,1.958,1.919,6.293,6.293,0,0,1,1.4,3.512.9.9,0,0,1-.574.979,2.324,2.324,0,0,1-1.606-.248,4.191,4.191,0,0,1-1.1-.653,8.71,8.71,0,0,1-1.058-1.306,9.336,9.336,0,0,0-2.4-2.4,30.031,30.031,0,0,0-4.818-2.546c-1.684-.731-2.716-.914-3.081-.574a1.41,1.41,0,0,0-.353.914v3.382a1.88,1.88,0,0,0,.444,1.462,7.612,7.612,0,0,0,2.311.927,2.22,2.22,0,0,0,1.306.118.966.966,0,0,0,.522-.849,4.623,4.623,0,0,1,.313-1.188.914.914,0,0,1,.6-.379,1.789,1.789,0,0,1,1.071.144,3.512,3.512,0,0,1,1.515,1.2,5.431,5.431,0,0,1,.77,1.815,9.244,9.244,0,0,1,.313,2.35,5.418,5.418,0,0,1-1.058,3.564,1.75,1.75,0,0,1-1.776.522,1.7,1.7,0,0,1-1.031-.457,2.768,2.768,0,0,1-.431-1.306c-.222-1.306-1.175-2.1-2.9-2.507-.666-.144-1.11-.078-1.306.2a3.134,3.134,0,0,0-.366,1.815,12.835,12.835,0,0,0,.144,2.18,10.446,10.446,0,0,0,.3,1.789c.118.366.483.64,1.1.836a17.2,17.2,0,0,0,3.029.47,17.4,17.4,0,0,0,4.909-.091,4.909,4.909,0,0,0,2.611-1.541,2.611,2.611,0,0,1,1.071-.809,2.363,2.363,0,0,1,1.306,0,3.016,3.016,0,0,1,1.462.757,1.58,1.58,0,0,1,.574,1.175,3.107,3.107,0,0,1-.64,1.632,9.949,9.949,0,0,1-1.671,1.854,4.191,4.191,0,0,1-.81.548,2.063,2.063,0,0,1-.81.131,6.164,6.164,0,0,1-1.162-.091,35.892,35.892,0,0,0-3.682-.274c-6.111-.131-12.4-.235-18.828-.313a2.964,2.964,0,0,1-1.8-.509,1.684,1.684,0,0,1-.64-1.41,1.306,1.306,0,0,1,.274-.9,3.917,3.917,0,0,1,1.306-.653,2.246,2.246,0,0,0,1.005-.614,2.859,2.859,0,0,0,.522-1.149,37.551,37.551,0,0,0,.744-8.408c0-5.366-.366-8.839-1.084-10.445a2.611,2.611,0,0,0-.509-.757,8.37,8.37,0,0,0-1.136-.783A2.363,2.363,0,0,1,103.621,9.8a1.41,1.41,0,0,1,.431-1.1,1.371,1.371,0,0,1,1.149-.3,19.507,19.507,0,0,1,3.356,1.071Z" transform="translate(31.672 2.562)" fill="#fff"/>
    <path id="Path_14" data-name="Path 14" d="M46.249,32.211a15.5,15.5,0,0,1,10.706,4.113,20.891,20.891,0,0,1,5.053,7.364,23.254,23.254,0,0,1,1.893,9.14,18.828,18.828,0,0,1-3.734,11.647A14.062,14.062,0,0,1,51.916,69.8a15.068,15.068,0,0,1-6.254.078,19.585,19.585,0,0,1-7.834-3.538,23.345,23.345,0,0,1-6.985-8.134,19.872,19.872,0,0,1-2.442-9.4,15.564,15.564,0,0,1,3.134-9.675,16.974,16.974,0,0,1,7.573-5.64,18.593,18.593,0,0,1,7.142-1.28ZM44,39.771a3.382,3.382,0,0,0-3.147,1.789,6.084,6.084,0,0,0-.888,3.369A26.231,26.231,0,0,0,41.053,51.8a37.629,37.629,0,0,0,2.742,7.246,7.7,7.7,0,0,0,1.8,2.324,4.243,4.243,0,0,0,2.207,1.1A2.951,2.951,0,0,0,50.714,61.3a6.332,6.332,0,0,0,1.11-3.917,30.7,30.7,0,0,0-.94-7.194,27.014,27.014,0,0,0-2.4-6.607,8.565,8.565,0,0,0-2.089-2.611A4.309,4.309,0,0,0,44,39.771Z" transform="translate(8.68 9.845)" fill="#fff"/>
    <path id="Path_15" data-name="Path 15" d="M70.279,71.573l-3.212.091c-2.272.065-3.917.091-4.962.144a19.011,19.011,0,0,1-2,.091,3.251,3.251,0,0,1-2.324-.94A3.094,3.094,0,0,1,57,68.792a2.1,2.1,0,0,1,.313-1.227,8.84,8.84,0,0,1,1.515-1.306,2.925,2.925,0,0,0,.9-1.828,50.648,50.648,0,0,0,.575-5.157c.3-4.113.457-9.14.457-15.211A16.66,16.66,0,0,0,60.4,39.65a3.4,3.4,0,0,0-1.75-1.815,2.507,2.507,0,0,1-1.58-2.324,2.611,2.611,0,0,1,.94-2.037,3.721,3.721,0,0,1,2.442-.783,17.87,17.87,0,0,1,2.089.091c1.41.065,2.938.1,4.57.1,1.2,0,3.564,0,7.09-.183h3a17.966,17.966,0,0,1,5.144.574,8.3,8.3,0,0,1,3.382,1.958,7.951,7.951,0,0,1,2.337,6.006,10.445,10.445,0,0,1-.692,3.7A8,8,0,0,1,85.5,47.9a2.285,2.285,0,0,0-.836,1.449c0,.47.339.836,1.005,1.1A8.748,8.748,0,0,1,89.225,53.2a8.16,8.16,0,0,1,1.645,5.3A13.226,13.226,0,0,1,78.544,71.391c-.588,0-2.05.131-4.374.17C72.068,71.586,70.762,71.573,70.279,71.573ZM71.938,40.8v5.836a4.544,4.544,0,0,0,.3,1.945,1.045,1.045,0,0,0,1.045.535,2.977,2.977,0,0,0,2.611-1.306,7.586,7.586,0,0,0,.836-4.034,8.017,8.017,0,0,0-.849-4.152A2.716,2.716,0,0,0,73.426,38.2a1.306,1.306,0,0,0-1.162.561,4.452,4.452,0,0,0-.326,2.037Zm0,16.308V59.8a16.739,16.739,0,0,0,.457,4.9,1.71,1.71,0,0,0,1.854,1.136c2.429-.131,3.643-1.893,3.643-5.223,0-4.152-1.306-6.15-4.074-6.058a1.776,1.776,0,0,0-1.462.574A3.421,3.421,0,0,0,71.938,57.107Z" transform="translate(17.422 9.991)" fill="#fff"/>
    <path id="Path_16" data-name="Path 16" d="M94.343,32.3a25.814,25.814,0,0,1,5.027.444c2.1.418,3.16,1.306,3.16,2.611a1.554,1.554,0,0,1-.313,1.045,8.03,8.03,0,0,1-1.593,1.084,3.369,3.369,0,0,0-1.41,2.533,52.371,52.371,0,0,0-.339,7.416,80.571,80.571,0,0,0,.444,11.411,1.724,1.724,0,0,0,.5.953,3.108,3.108,0,0,0,1.175.522c1.031.209,1.541.757,1.541,1.645,0,1.306-.94,2.415-2.833,3.447a31.78,31.78,0,0,1-7.56,2.781c-5.131,1.2-7.716.509-7.716-1.7a3.486,3.486,0,0,1,1.528-2.481,3.812,3.812,0,0,0,1.306-2.389,111.951,111.951,0,0,0,.509-12.743,35.815,35.815,0,0,0-.614-8.565,3.551,3.551,0,0,0-1.593-1.88,5.693,5.693,0,0,1-1.306-1.162,2.05,2.05,0,0,1-.339-1.214,2.154,2.154,0,0,1,.992-1.854,10.445,10.445,0,0,1,3.46-1.306,27.889,27.889,0,0,1,5.98-.6Z" transform="translate(25.648 9.873)" fill="#fff"/>
  </g>
</svg>
